<?xml version="1.0" encoding="iso-8859-1"?>
<!-- Uploaded to: SVG Repo, www.svgrepo.com, Generator: SVG Repo Mixer Tools -->
<svg version="1.1" id="Layer_1" xmlns="http://www.w3.org/2000/svg" xmlns:xlink="http://www.w3.org/1999/xlink" 
	 viewBox="0 0 512 512" xml:space="preserve">
<circle style="fill:#E6F3FF;" cx="256" cy="256" r="256"/>
<path style="fill:#CFDBE6;" d="M512,256c0-0.091-0.003-0.183-0.003-0.274L362.148,105.877c0,0-112.128,55.586-155.853,77.433
	l-56.442,28.713l66.388,66.388H138.2v90.496l-38.214,16.531l124.649,124.649C234.915,511.341,245.381,512,256,512
	C397.384,512,512,397.384,512,256z"/>
<path style="fill:#324A5E;" d="M357.707,271.084h-93.949V155.296h-15.515v115.79h-93.949c-16.32,0-29.596,13.278-29.596,29.596
	v27.579h15.515v-27.579c0-7.764,6.318-14.081,14.081-14.081h93.949v41.662h15.515v-41.663h93.949
	c7.764,0,14.081,6.318,14.081,14.081v27.579h15.515V300.68C387.305,284.362,374.027,271.084,357.707,271.084z"/>
<path style="fill:#2B3B4E;" d="M357.707,271.084h-93.949V155.296h-8.332v172.965h8.332v-41.662h93.949
	c7.764,0,14.081,6.318,14.081,14.081v27.579h15.515V300.68C387.305,284.362,374.027,271.084,357.707,271.084z"/>
<rect x="149.859" y="105.882" style="fill:#2C9984;" width="212.299" height="106.141"/>
<rect x="255.431" y="105.882" style="fill:#258976;" width="106.722" height="106.141"/>
<rect x="157.565" y="112.623" style="fill:#90DFAA;" width="196.853" height="92.638"/>
<rect x="255.431" y="112.623" style="fill:#7ACE91;" width="99.004" height="92.638"/>
<ellipse style="fill:#2C9984;" cx="256" cy="158.944" rx="21.23" ry="31.844"/>
<path style="fill:#258976;" d="M256,127.105c-0.193,0-0.381,0.036-0.574,0.043v63.602c0.193,0.009,0.381,0.043,0.574,0.043
	c11.724,0,21.23-14.257,21.23-31.844C277.23,141.364,267.724,127.105,256,127.105z"/>
<g>
	<rect x="99.987" y="320.509" style="fill:#FC6F58;" width="64.934" height="64.934"/>
	<rect x="223.539" y="320.509" style="fill:#FC6F58;" width="64.934" height="64.934"/>
</g>
<g>
	<rect x="255.431" y="320.509" style="fill:#F1543F;" width="33.047" height="64.934"/>
	<rect x="347.074" y="320.509" style="fill:#F1543F;" width="64.934" height="64.934"/>
</g>
</svg>